<?xml version="1.0" encoding="UTF-8"?>
<svg id="Calque_1" data-name="Calque 1" xmlns="http://www.w3.org/2000/svg" viewBox="0 0 595.28 199.44">
  <g>
    <path d="M505.99,146.07v-55.67h-85.58v86.04h85.58v-28.99c-9.45,12.45-22.59,17.21-37.59,17.92-13.39.64-26.13-1.75-37.18-9.77-3.59-2.6-6.41-6.27-9.5-9.53-.56-.59-.69-1.57-.81-2.58,11.92,11.43,26.78,14.33,42.31,14.93,15.54.6,30.38-1.76,42.77-12.35ZM477.89,121.95c.1-1.72.76-3.12,2.55-3.27,1.67-.14,2.54,1.12,3,2.64.11.36.32.69.62,1.32.99-.8,1.89-1.55,2.8-2.28,4.47-3.59,9.17-2.87,12.31,1.93,2.85,4.35,3.16,9.13,2.27,14.09-.37,2.04-1.7,3.15-3.65,3.13-1.98-.01-3.3-1.31-3.66-3.2-.64-3.29-1.06-6.61-1.67-10.51-3.14,2.86-5.04,5.9-6.31,9.37-.36,1-.61,2.05-1.03,3.02-.83,1.95-2.76,3.01-4.59,2.61-2.18-.48-3.55-1.94-3.46-4.2.19-4.88.56-9.76.82-14.65ZM447.67,108.39c1.43.16,2.37,1.29,2.54,2.95.16,1.48-1.79,3.37-3.2,3.34-1.54-.03-2.89-1.61-2.83-3.3.06-1.7,1.45-3.03,3.49-2.99ZM449.36,136.77c-.05.52-.22,1.04-.42,1.53-.69,1.68-1.8,3.01-3.78,2.62-2.01-.41-2.98-1.97-2.7-3.94.61-4.29,1.4-8.56,2.14-12.84.17-.98.17-2.13.72-2.85.64-.83,1.87-1.83,2.7-1.71.85.12,1.76,1.4,2.19,2.37.36.84.07,1.96.07,2.95.05,0,.09.01.14.01-.35,3.96-.69,7.91-1.06,11.86ZM461.14,132.19c-2.05-.11-3-1.54-3.18-3.31-.17-1.78,1.26-2.77,2.74-2.78,3.35-.03,6.72.16,10.03.6.78.1,1.96,1.59,1.92,2.38-.06.95-1.06,2.37-1.94,2.65-1.78.56-3.75.48-5.64.66-.01-.06-.01-.12-.02-.18-1.3,0-2.61.05-3.91-.02Z" style="fill: #fff; stroke-width: 0px;"/>
    <path d="M505.99,146.07v1.38c-9.45,12.45-22.59,17.21-37.59,17.92-13.39.64-26.13-1.75-37.18-9.77-3.59-2.6-6.41-6.27-9.5-9.53-.56-.59-.69-1.57-.81-2.58,11.92,11.43,26.78,14.33,42.31,14.93,15.54.6,30.38-1.76,42.77-12.35Z" style="fill: #bb181e; stroke-width: 0px;"/>
    <path d="M501.44,136.38c-.37,2.04-1.7,3.15-3.65,3.13-1.98-.01-3.3-1.31-3.66-3.2-.64-3.29-1.06-6.61-1.67-10.51-3.14,2.86-5.04,5.9-6.31,9.37-.36,1-.61,2.05-1.03,3.02-.83,1.95-2.76,3.01-4.59,2.61-2.18-.48-3.55-1.94-3.46-4.2.19-4.88.56-9.76.82-14.65.1-1.72.76-3.12,2.55-3.27,1.67-.14,2.54,1.12,3,2.64.11.36.32.69.62,1.32.99-.8,1.89-1.55,2.8-2.28,4.47-3.59,9.17-2.87,12.31,1.93,2.85,4.35,3.16,9.13,2.27,14.09Z" style="fill: #282d57; stroke-width: 0px;"/>
    <path d="M450.42,124.91c-.35,3.96-.69,7.91-1.06,11.86-.05.52-.22,1.04-.42,1.53-.69,1.68-1.8,3.01-3.78,2.62-2.01-.41-2.98-1.97-2.7-3.94.61-4.29,1.4-8.56,2.14-12.84.17-.98.17-2.13.72-2.85.64-.83,1.87-1.83,2.7-1.71.85.12,1.76,1.4,2.19,2.37.36.84.07,1.96.07,2.95.05,0,.09.01.14.01Z" style="fill: #bb181e; stroke-width: 0px;"/>
    <path d="M472.65,129.08c-.06.95-1.06,2.37-1.94,2.65-1.78.56-3.75.48-5.64.66-.01-.06-.01-.12-.02-.18-1.3,0-2.61.05-3.91-.02-2.05-.11-3-1.54-3.18-3.31-.17-1.78,1.26-2.77,2.74-2.78,3.35-.03,6.72.16,10.03.6.78.1,1.96,1.59,1.92,2.38Z" style="fill: #282d57; stroke-width: 0px;"/>
    <path d="M450.21,111.34c.16,1.48-1.79,3.37-3.2,3.34-1.54-.03-2.89-1.61-2.83-3.3.06-1.7,1.45-3.03,3.49-2.99,1.43.16,2.37,1.29,2.54,2.95Z" style="fill: #bb181e; stroke-width: 0px;"/>
  </g>
  <path d="M0,150.44s15.79,30.68,74.51,42.69c60.57,12.4,165.54,5.24,260.49-55.69,0,0,162.55-127,260.28,17V.44H0v150Z" style="fill: #bb181e; stroke-width: 0px;"/>
  <path d="M0,199.44s85.46-4.44,170.28-25.6c38.53-9.61,85.95-25.89,110.72-40.4,71.45-41.86,215.55-130,314.28,21V.44S-1-.56,0,.44v199Z" style="fill: #282d57; stroke-width: 0px;"/>
</svg>